<svg width="170" height="28" viewBox="0 0 170 28" fill="none" xmlns="http://www.w3.org/2000/svg">
<rect width="5" height="5" fill="#474747"/>
<rect x="5.75" width="5" height="5" fill="#474747"/>
<rect x="11.5" width="5" height="5" fill="#474747"/>
<rect x="17.25" width="5" height="5" fill="#474747"/>
<rect x="23" width="5" height="5" fill="#474747"/>
<rect x="11.5" y="5.75" width="5" height="5" fill="#474747"/>
<rect x="11.5" y="11.5" width="5" height="5" fill="#474747"/>
<rect x="11.5" y="17.25" width="5" height="5" fill="#474747"/>
<rect x="11.5" y="23" width="5" height="5" fill="#474747"/>
<rect x="59.0498" width="5" height="5" fill="#474747"/>
<rect x="59.0498" width="5" height="5" fill="#474747"/>
<rect x="64.7998" width="5" height="5" fill="#474747"/>
<rect x="70.5498" width="5" height="5" fill="#474747"/>
<rect x="64.7998" y="11.5" width="5" height="5" fill="#474747"/>
<rect x="70.5498" y="11.5" width="5" height="5" fill="#474747"/>
<rect x="76.2998" width="5" height="5" fill="#474747"/>
<rect x="76.2998" width="5" height="5" fill="#474747"/>
<rect x="59.0498" y="23" width="5" height="5" fill="#474747"/>
<rect x="59.0498" y="23" width="5" height="5" fill="#474747"/>
<rect x="59.0498" y="5.75" width="5" height="5" fill="#474747"/>
<rect x="59.0498" y="11.5" width="5" height="5" fill="#474747"/>
<rect x="76.2998" width="5" height="5" fill="#474747"/>
<rect x="76.2998" width="5" height="5" fill="#474747"/>
<rect x="76.2998" y="5.75" width="5" height="5" fill="#474747"/>
<rect x="76.2998" y="11.5" width="5" height="5" fill="#474747"/>
<rect x="59.0498" y="17.25" width="5" height="5" fill="#474747"/>
<rect x="59.0498" y="23" width="5" height="5" fill="#474747"/>
<rect x="38.1504" width="5" height="5" fill="#474747"/>
<rect x="43.9004" width="5" height="5" fill="#474747"/>
<rect x="49.6504" width="5" height="5" fill="#474747"/>
<rect x="32.4004" width="5" height="5" fill="#474747"/>
<rect x="32.4004" y="5.75" width="5" height="5" fill="#474747"/>
<rect x="32.4004" y="11.5" width="5" height="5" fill="#474747"/>
<rect x="32.4004" y="17.25" width="5" height="5" fill="#474747"/>
<rect x="32.4004" y="23" width="5" height="5" fill="#474747"/>
<rect x="49.6504" width="5" height="5" fill="#474747"/>
<rect x="38.1504" y="23" width="5" height="5" fill="#474747"/>
<rect x="43.9004" y="23" width="5" height="5" fill="#474747"/>
<rect x="49.6504" y="23" width="5" height="5" fill="#474747"/>
<rect x="32.4004" y="23" width="5" height="5" fill="#474747"/>
<rect x="49.6504" y="23" width="5" height="5" fill="#474747"/>
<rect x="49.6504" y="5.75" width="5" height="5" fill="#474747"/>
<rect x="49.6504" y="11.5" width="5" height="5" fill="#474747"/>
<rect x="49.6504" y="17.25" width="5" height="5" fill="#474747"/>
<rect x="49.6504" y="23" width="5" height="5" fill="#474747"/>
<rect x="49.6504" width="5" height="5" fill="#474747"/>
<rect x="49.6504" width="5" height="5" fill="#474747"/>
<rect x="49.6504" y="23" width="5" height="5" fill="#474747"/>
<rect x="49.6504" y="23" width="5" height="5" fill="#474747"/>
<rect x="49.6504" y="5.75" width="5" height="5" fill="#474747"/>
<rect x="49.6504" y="11.5" width="5" height="5" fill="#474747"/>
<rect x="49.6504" y="17.25" width="5" height="5" fill="#474747"/>
<rect x="49.6504" y="23" width="5" height="5" fill="#474747"/>
<rect x="85.7002" width="5" height="5" fill="#FE5000"/>
<rect x="85.7002" y="5.75" width="5" height="5" fill="#FE5000"/>
<rect x="85.7002" y="11.5" width="5" height="5" fill="#FE5000"/>
<rect x="97.2002" y="5.75" width="5" height="5" fill="#FE5000"/>
<rect x="91.4502" y="11.5" width="5" height="5" fill="#FE5000"/>
<rect x="102.95" width="5" height="5" fill="#FE5000"/>
<rect x="102.95" width="5" height="5" fill="#FE5000"/>
<rect x="97.2002" y="17.25" width="5" height="5" fill="#FE5000"/>
<rect x="102.95" y="23" width="5" height="5" fill="#FE5000"/>
<rect x="85.7002" y="17.25" width="5" height="5" fill="#FE5000"/>
<rect x="85.7002" y="23" width="5" height="5" fill="#FE5000"/>
<rect x="102.95" y="23" width="5" height="5" fill="#FE5000"/>
<rect x="123.95" y="1" width="46" height="26" rx="8" fill="#FF5000" fill-opacity="0.05"/>
<rect x="124.45" y="1.5" width="45" height="25" rx="7.5" stroke="#FE5000" stroke-opacity="0.5"/>
<path d="M135.734 18.5H132.909V9.77273H135.824C136.679 9.77273 137.413 9.94744 138.027 10.2969C138.641 10.6435 139.111 11.142 139.437 11.7926C139.767 12.4403 139.932 13.2173 139.932 14.1236C139.932 15.0327 139.766 15.8139 139.433 16.4673C139.104 17.1207 138.626 17.6236 138.001 17.9759C137.376 18.3253 136.621 18.5 135.734 18.5ZM134.226 17.3494H135.662C136.327 17.3494 136.879 17.2244 137.32 16.9744C137.76 16.7216 138.089 16.3565 138.308 15.8793C138.527 15.3991 138.636 14.8139 138.636 14.1236C138.636 13.4389 138.527 12.858 138.308 12.3807C138.092 11.9034 137.77 11.5412 137.341 11.294C136.912 11.0469 136.379 10.9233 135.743 10.9233H134.226V17.3494ZM144.224 18.6321C143.61 18.6321 143.075 18.4915 142.617 18.2102C142.16 17.929 141.805 17.5355 141.552 17.0298C141.299 16.5241 141.173 15.9332 141.173 15.2571C141.173 14.5781 141.299 13.9844 141.552 13.4759C141.805 12.9673 142.16 12.5724 142.617 12.2912C143.075 12.0099 143.61 11.8693 144.224 11.8693C144.838 11.8693 145.373 12.0099 145.831 12.2912C146.288 12.5724 146.643 12.9673 146.896 13.4759C147.149 13.9844 147.275 14.5781 147.275 15.2571C147.275 15.9332 147.149 16.5241 146.896 17.0298C146.643 17.5355 146.288 17.929 145.831 18.2102C145.373 18.4915 144.838 18.6321 144.224 18.6321ZM144.228 17.5625C144.626 17.5625 144.956 17.4574 145.217 17.2472C145.478 17.0369 145.671 16.7571 145.796 16.4077C145.924 16.0582 145.988 15.6733 145.988 15.2528C145.988 14.8352 145.924 14.4517 145.796 14.1023C145.671 13.75 145.478 13.4673 145.217 13.2543C144.956 13.0412 144.626 12.9347 144.228 12.9347C143.828 12.9347 143.495 13.0412 143.231 13.2543C142.97 13.4673 142.775 13.75 142.647 14.1023C142.522 14.4517 142.46 14.8352 142.46 15.2528C142.46 15.6733 142.522 16.0582 142.647 16.4077C142.775 16.7571 142.97 17.0369 143.231 17.2472C143.495 17.4574 143.828 17.5625 144.228 17.5625ZM151.454 18.6321C150.821 18.6321 150.275 18.4886 149.818 18.2017C149.364 17.9119 149.014 17.5128 148.77 17.0043C148.525 16.4957 148.403 15.9134 148.403 15.2571C148.403 14.5923 148.528 14.0057 148.778 13.4972C149.028 12.9858 149.381 12.5866 149.835 12.2997C150.29 12.0128 150.825 11.8693 151.442 11.8693C151.939 11.8693 152.382 11.9616 152.771 12.1463C153.16 12.3281 153.474 12.5838 153.713 12.9134C153.954 13.2429 154.098 13.6278 154.143 14.0682H152.903C152.835 13.7614 152.679 13.4972 152.435 13.2756C152.193 13.054 151.869 12.9432 151.463 12.9432C151.108 12.9432 150.797 13.0369 150.53 13.2244C150.266 13.4091 150.06 13.6733 149.912 14.017C149.764 14.358 149.69 14.7614 149.69 15.2273C149.69 15.7045 149.763 16.1165 149.908 16.4631C150.052 16.8097 150.257 17.0781 150.521 17.2685C150.788 17.4588 151.102 17.554 151.463 17.554C151.704 17.554 151.923 17.5099 152.119 17.4219C152.318 17.331 152.484 17.2017 152.618 17.0341C152.754 16.8665 152.849 16.6648 152.903 16.429H154.143C154.098 16.8523 153.96 17.2301 153.73 17.5625C153.5 17.8949 153.192 18.1562 152.805 18.3466C152.422 18.5369 151.972 18.6321 151.454 18.6321ZM160.411 13.5526L159.256 13.7571C159.208 13.6094 159.131 13.4687 159.026 13.3352C158.924 13.2017 158.784 13.0923 158.608 13.0071C158.432 12.9219 158.212 12.8793 157.948 12.8793C157.587 12.8793 157.286 12.9602 157.044 13.1222C156.803 13.2812 156.682 13.4872 156.682 13.7401C156.682 13.9588 156.763 14.1349 156.925 14.2685C157.087 14.402 157.348 14.5114 157.709 14.5966L158.749 14.8352C159.351 14.9744 159.8 15.1889 160.095 15.4787C160.391 15.7685 160.539 16.1449 160.539 16.608C160.539 17 160.425 17.3494 160.198 17.6562C159.973 17.9602 159.659 18.1989 159.256 18.3722C158.855 18.5455 158.391 18.6321 157.862 18.6321C157.13 18.6321 156.532 18.4759 156.068 18.1634C155.605 17.848 155.321 17.4006 155.216 16.821L156.448 16.6335C156.524 16.9545 156.682 17.1974 156.921 17.3622C157.159 17.5241 157.47 17.6051 157.854 17.6051C158.272 17.6051 158.605 17.5185 158.855 17.3452C159.105 17.169 159.23 16.9545 159.23 16.7017C159.23 16.4972 159.154 16.3253 159 16.1861C158.85 16.0469 158.618 15.9418 158.306 15.8707L157.198 15.6278C156.587 15.4886 156.135 15.267 155.843 14.9631C155.553 14.6591 155.408 14.2741 155.408 13.8082C155.408 13.4219 155.516 13.0838 155.732 12.794C155.948 12.5043 156.246 12.2784 156.627 12.1165C157.007 11.9517 157.443 11.8693 157.935 11.8693C158.642 11.8693 159.199 12.0227 159.605 12.3295C160.012 12.6335 160.28 13.0412 160.411 13.5526Z" fill="#FE5000"/>
</svg>
