<svg width="120" height="33.6" viewBox="0 0 2000 560" fill="none" xmlns="http://www.w3.org/2000/svg">
  <rect width="100" height="100" fill="#474747" />
  <rect x="115" width="100" height="100" fill="#474747" />
  <rect x="230" width="100" height="100" fill="#474747" />
  <rect x="345" width="100" height="100" fill="#474747" />
  <rect x="460" width="100" height="100" fill="#474747" />
  <rect x="230" y="115" width="100" height="100" fill="#474747" />
  <rect x="230" y="230" width="100" height="100" fill="#474747" />
  <rect x="230" y="345" width="100" height="100" fill="#474747" />
  <rect x="230" y="460" width="100" height="100" fill="#474747" />
  <rect x="1075" width="100" height="100" fill="#474747" />
  <rect x="1075" width="100" height="100" fill="#474747" />
  <rect x="1190" width="100" height="100" fill="#474747" />
  <rect x="1305" width="100" height="100" fill="#474747" />
  <rect x="1190" y="230" width="100" height="100" fill="#474747" />
  <rect x="1305" y="230" width="100" height="100" fill="#474747" />
  <rect x="1420" width="100" height="100" fill="#474747" />
  <rect x="1420" width="100" height="100" fill="#474747" />
  <rect x="1075" y="460" width="100" height="100" fill="#474747" />
  <rect x="1075" y="460" width="100" height="100" fill="#474747" />
  <rect x="1075" y="115" width="100" height="100" fill="#474747" />
  <rect x="1075" y="230" width="100" height="100" fill="#474747" />
  <rect x="1420" width="100" height="100" fill="#474747" />
  <rect x="1420" width="100" height="100" fill="#474747" />
  <rect x="1420" y="115" width="100" height="100" fill="#474747" />
  <rect x="1420" y="230" width="100" height="100" fill="#474747" />
  <rect x="1075" y="345" width="100" height="100" fill="#474747" />
  <rect x="1075" y="460" width="100" height="100" fill="#474747" />
  <rect x="710" width="100" height="100" fill="#474747" />
  <rect x="825" width="100" height="100" fill="#474747" />
  <rect x="940" width="100" height="100" fill="#474747" />
  <rect x="595" width="100" height="100" fill="#474747" />
  <rect x="595" y="115" width="100" height="100" fill="#474747" />
  <rect x="595" y="230" width="100" height="100" fill="#474747" />
  <rect x="595" y="345" width="100" height="100" fill="#474747" />
  <rect x="595" y="460" width="100" height="100" fill="#474747" />
  <rect x="940" width="100" height="100" fill="#474747" />
  <rect x="710" y="460" width="100" height="100" fill="#474747" />
  <rect x="825" y="460" width="100" height="100" fill="#474747" />
  <rect x="940" y="460" width="100" height="100" fill="#474747" />
  <rect x="595" y="460" width="100" height="100" fill="#474747" />
  <rect x="940" y="460" width="100" height="100" fill="#474747" />
  <rect x="940" y="115" width="100" height="100" fill="#474747" />
  <rect x="940" y="230" width="100" height="100" fill="#474747" />
  <rect x="940" y="345" width="100" height="100" fill="#474747" />
  <rect x="940" y="460" width="100" height="100" fill="#474747" />
  <rect x="940" width="100" height="100" fill="#474747" />
  <rect x="940" width="100" height="100" fill="#474747" />
  <rect x="940" y="460" width="100" height="100" fill="#474747" />
  <rect x="940" y="460" width="100" height="100" fill="#474747" />
  <rect x="940" y="115" width="100" height="100" fill="#474747" />
  <rect x="940" y="230" width="100" height="100" fill="#474747" />
  <rect x="940" y="345" width="100" height="100" fill="#474747" />
  <rect x="940" y="460" width="100" height="100" fill="#474747" />
  <rect x="1555" width="100" height="100" fill="#FE5000" />
  <rect x="1555" y="115" width="100" height="100" fill="#FE5000" />
  <rect x="1555" y="230" width="100" height="100" fill="#FE5000" />
  <rect x="1785" y="115" width="100" height="100" fill="#FE5000" />
  <rect x="1670" y="230" width="100" height="100" fill="#FE5000" />
  <rect x="1900" width="100" height="100" fill="#FE5000" />
  <rect x="1900" width="100" height="100" fill="#FE5000" />
  <rect x="1785" y="345" width="100" height="100" fill="#FE5000" />
  <rect x="1900" y="460" width="100" height="100" fill="#FE5000" />
  <rect x="1555" y="345" width="100" height="100" fill="#FE5000" />
  <rect x="1555" y="460" width="100" height="100" fill="#FE5000" />
  <rect x="1900" y="460" width="100" height="100" fill="#FE5000" />
</svg>
